# MagicaVoxel @ Ephtracy

# group
o 

# material
mtllib models-1.mtl
usemtl palette

# normals
vn -1 0 0
vn 1 0 0
vn 0 0 1
vn 0 0 -1
vn 0 -1 0
vn 0 1 0

# texcoords
vt 0.533203 0.5
vt 0.537109 0.5
vt 0.541016 0.5
vt 0.544922 0.5
vt 0.548828 0.5
vt 0.583984 0.5
vt 0.587891 0.5
vt 0.591797 0.5
vt 0.716797 0.5

# verts
v -2.9 5.9 -1.3
v -2.9 5.9 -2.7
v -2.9 5.9 -3
v -2.9 5.9 -3.7
v -2.9 6 -1.3
v -2.9 6 -2.7
v -2.9 6 -3
v -2.9 6 -3.7
v -2.9 6.3 -1.1
v -2.9 6.3 -1.6
v -2.9 6.3 -1.8
v -2.9 6.3 -3.7
v -2.9 6.4 -1.1
v -2.9 6.4 -1.6
v -2.9 6.4 -1.8
v -2.9 6.4 -3.7
v -2.8 5.9 -2.7
v -2.8 5.9 -3
v -2.8 6 -1.2
v -2.8 6 -1.3
v -2.8 6 -2.7
v -2.8 6 -3
v -2.8 6 -3.5
v -2.8 6.1 -1.2
v -2.8 6.1 -1.6
v -2.8 6.1 -1.8
v -2.8 6.1 -2
v -2.8 6.1 -2.1
v -2.8 6.1 -2.7
v -2.8 6.1 -2.8
v -2.8 6.1 -2.9
v -2.8 6.1 -3.1
v -2.8 6.1 -3.4
v -2.8 6.2 -1.2
v -2.8 6.2 -1.6
v -2.8 6.2 -1.8
v -2.8 6.2 -2
v -2.8 6.2 -2.1
v -2.8 6.2 -2.7
v -2.8 6.2 -2.8
v -2.8 6.2 -2.9
v -2.8 6.2 -3.1
v -2.8 6.2 -3.4
v -2.8 6.2 -3.5
v -2.8 6.3 -1.2
v -2.8 6.3 -1.6
v -2.8 6.3 -1.7
v -2.8 6.3 -1.8
v -2.8 6.3 -3.5
v -2.8 6.4 -1.6
v -2.8 6.4 -1.7
v -2.7 5.9 -1.1
v -2.7 5.9 -1.3
v -2.7 6 -1.1
v -2.7 6 -1.2
v -2.7 6 -1.3
v -2.7 6.3 -1.7
v -2.7 6.3 -1.9
v -2.7 6.4 -1.7
v -2.7 6.4 -1.9
v -2.2 6.3 -3.6
v -2.2 6.3 -3.7
v -2.2 6.4 -3.6
v -2.2 6.4 -3.7
v -1.9 5.9 -1.1
v -1.9 5.9 -1.2
v -1.9 6 -1.1
v -1.9 6 -1.2
v -1.5 5.9 -3.6
v -1.5 5.9 -3.7
v -1.5 6 -3.6
v -1.5 6 -3.7
v -1.3 6.1 -1.1
v -1.3 6.1 -1.2
v -1.3 6.2 -1.1
v -1.3 6.2 -1.2
v -1.2 6 -1
v -1.2 6 -1.1
v -1.2 6.1 -1
v -1.2 6.1 -1.1
v -1.1 5.9 -0.8
v -1.1 5.9 -1.1
v -1.1 6 -0.8
v -1.1 6 -1
v -1.1 6 -1.1
v -1 6 -1.1
v -1 6 -1.2
v -1 6.1 -1.1
v -1 6.1 -1.2
v -1 6.1 -3.5
v -1 6.1 -3.6
v -1 6.2 -1.1
v -1 6.2 -1.2
v -1 6.2 -3.5
v -1 6.2 -3.6
v -1 6.3 -1.1
v -1 6.3 -1.2
v -1 6.3 -1.6
v -1 6.3 -1.8
v -1 6.3 -3.5
v -1 6.3 -3.6
v -1 6.4 -1.6
v -1 6.4 -1.8
v -0.9 6.3 -1.5
v -0.9 6.3 -1.6
v -0.9 6.4 -1.5
v -0.9 6.4 -1.6
v -2.8 6.3 -1.8
v -2.8 6.3 -1.9
v -2.8 6.4 -1.8
v -2.8 6.4 -1.9
v -2.3 6.3 -3.6
v -2.3 6.3 -3.7
v -2.3 6.4 -3.6
v -2.3 6.4 -3.7
v -2 5.9 -1.1
v -2 5.9 -1.2
v -2 6 -1.1
v -2 6 -1.2
v -1.7 5.9 -3.6
v -1.7 5.9 -3.7
v -1.7 6 -3.6
v -1.7 6 -3.7
v -1.1 5.9 -3.6
v -1.1 5.9 -3.7
v -1.1 6 -3.6
v -1.1 6 -3.7
v -1.1 6.3 -1.5
v -1.1 6.3 -1.8
v -1.1 6.4 -1.5
v -1.1 6.4 -1.8
v -1 5.9 -0.8
v -1 5.9 -0.9
v -1 5.9 -1
v -1 5.9 -1.1
v -1 6 -0.8
v -1 6 -0.9
v -1 6 -1
v -1 6.1 -1
v -1 6.1 -1.1
v -1 6.3 -1.4
v -1 6.3 -1.5
v -1 6.3 -3.6
v -1 6.3 -3.7
v -1 6.4 -1.4
v -1 6.4 -1.5
v -1 6.4 -3.6
v -1 6.4 -3.7
v -0.9 5.9 -0.9
v -0.9 5.9 -1
v -0.9 5.9 -3.5
v -0.9 5.9 -3.6
v -0.9 6 -0.9
v -0.9 6 -1
v -0.9 6 -3.5
v -0.9 6 -3.6
v -0.9 6.1 -3.5
v -0.9 6.1 -3.6
v -0.9 6.2 -3.5
v -0.9 6.2 -3.6
v -0.9 6.3 -3.4
v -0.9 6.3 -3.5
v -0.9 6.3 -3.6
v -0.9 6.4 -3.4
v -0.9 6.4 -3.6
v -0.8 5.9 -1.1
v -0.8 5.9 -3.5
v -0.8 6.2 -1.1
v -0.8 6.2 -3.5
v -0.8 6.3 -1.4
v -0.8 6.3 -1.5
v -0.8 6.3 -3.4
v -0.8 6.3 -3.5
v -0.8 6.4 -1.1
v -0.8 6.4 -1.4
v -0.8 6.4 -1.5
v -0.8 6.4 -3.4
v -1.1 5.9 -0.8
v -1.1 6 -0.8
v -1 5.9 -0.8
v -1 6 -0.8
v -1 5.9 -0.9
v -1 6 -0.9
v -0.9 5.9 -0.9
v -0.9 6 -0.9
v -1.2 6 -1
v -1.2 6.1 -1
v -1.1 6 -1
v -1 6 -1
v -1 6.1 -1
v -2.9 6.3 -1.1
v -2.9 6.4 -1.1
v -2.7 5.9 -1.1
v -2.7 6 -1.1
v -2 5.9 -1.1
v -2 6 -1.1
v -1.9 5.9 -1.1
v -1.9 6 -1.1
v -1.3 6.1 -1.1
v -1.3 6.2 -1.1
v -1.2 6 -1.1
v -1.2 6.1 -1.1
v -1.1 5.9 -1.1
v -1.1 6 -1.1
v -1 5.9 -1.1
v -1 6.1 -1.1
v -1 6.2 -1.1
v -1 6.3 -1.1
v -0.8 5.9 -1.1
v -0.8 6.2 -1.1
v -0.8 6.4 -1.1
v -2.8 6 -1.2
v -2.8 6.1 -1.2
v -2.8 6.2 -1.2
v -2.8 6.3 -1.2
v -2.7 6 -1.2
v -2.6 6.1 -1.2
v -2.6 6.2 -1.2
v -2.5 6.1 -1.2
v -2.5 6.2 -1.2
v -2.3 6.1 -1.2
v -2.3 6.2 -1.2
v -2.1 6.1 -1.2
v -2.1 6.2 -1.2
v -2 5.9 -1.2
v -2 6 -1.2
v -2 6.1 -1.2
v -2 6.2 -1.2
v -1.9 5.9 -1.2
v -1.9 6 -1.2
v -1.8 6.1 -1.2
v -1.8 6.2 -1.2
v -1.6 6.1 -1.2
v -1.6 6.2 -1.2
v -1.3 6.1 -1.2
v -1.3 6.2 -1.2
v -1.2 6 -1.2
v -1.2 6.1 -1.2
v -1 6 -1.2
v -1 6.1 -1.2
v -1 6.2 -1.2
v -1 6.3 -1.2
v -2.9 5.9 -1.3
v -2.9 6 -1.3
v -2.8 6 -1.3
v -2.7 5.9 -1.3
v -2.7 6 -1.3
v -0.9 6.3 -1.5
v -0.9 6.4 -1.5
v -0.8 6.3 -1.5
v -0.8 6.4 -1.5
v -1 6.3 -1.6
v -1 6.4 -1.6
v -0.9 6.3 -1.6
v -0.9 6.4 -1.6
v -2.9 6.3 -1.8
v -2.9 6.4 -1.8
v -2.8 6.3 -1.8
v -2.8 6.4 -1.8
v -1.1 6.3 -1.8
v -1.1 6.4 -1.8
v -1 6.3 -1.8
v -1 6.4 -1.8
v -2.8 6.3 -1.9
v -2.8 6.4 -1.9
v -2.7 6.3 -1.9
v -2.7 6.4 -1.9
v -2.9 5.9 -3
v -2.9 6 -3
v -2.8 5.9 -3
v -2.8 6 -3
v -1 5.9 -1
v -1 6 -1
v -0.9 5.9 -1
v -0.9 6 -1
v -1.2 6 -1.1
v -1.2 6.1 -1.1
v -1 6 -1.1
v -1 6.1 -1.1
v -1 6.3 -1.4
v -1 6.4 -1.4
v -0.9 6.3 -1.4
v -0.8 6.3 -1.4
v -0.8 6.4 -1.4
v -1.1 6.3 -1.5
v -1.1 6.4 -1.5
v -1 6.3 -1.5
v -1 6.4 -1.5
v -2.9 6.3 -1.6
v -2.9 6.4 -1.6
v -2.8 6.3 -1.6
v -2.8 6.4 -1.6
v -2.8 6.3 -1.7
v -2.8 6.4 -1.7
v -2.7 6.3 -1.7
v -2.7 6.4 -1.7
v -2.9 5.9 -2.7
v -2.9 6 -2.7
v -2.8 5.9 -2.7
v -2.8 6 -2.7
v -0.9 6.3 -3.4
v -0.9 6.4 -3.4
v -0.8 6.3 -3.4
v -0.8 6.4 -3.4
v -2.8 6 -3.5
v -2.8 6.2 -3.5
v -2.8 6.3 -3.5
v -2.7 6.3 -3.5
v -2.6 6.1 -3.5
v -2.6 6.2 -3.5
v -2.4 6.1 -3.5
v -2.4 6.2 -3.5
v -2.3 6.1 -3.5
v -2.3 6.2 -3.5
v -2.2 6.1 -3.5
v -2.2 6.2 -3.5
v -2 6.1 -3.5
v -2 6.2 -3.5
v -1.4 6.1 -3.5
v -1.4 6.2 -3.5
v -1.3 6.1 -3.5
v -1.3 6.2 -3.5
v -1.2 6 -3.5
v -1.2 6.1 -3.5
v -1.2 6.2 -3.5
v -1.1 6.3 -3.5
v -1 6 -3.5
v -1 6.1 -3.5
v -1 6.2 -3.5
v -1 6.3 -3.5
v -0.9 5.9 -3.5
v -0.9 6 -3.5
v -0.9 6.1 -3.5
v -0.9 6.2 -3.5
v -0.9 6.3 -3.5
v -0.8 5.9 -3.5
v -0.8 6.2 -3.5
v -0.8 6.3 -3.5
v -2.3 6.3 -3.6
v -2.3 6.4 -3.6
v -2.2 6.3 -3.6
v -2.2 6.4 -3.6
v -1.7 5.9 -3.6
v -1.7 6 -3.6
v -1.5 5.9 -3.6
v -1.5 6 -3.6
v -1.1 5.9 -3.6
v -1.1 6 -3.6
v -1 6.1 -3.6
v -1 6.2 -3.6
v -1 6.3 -3.6
v -1 6.4 -3.6
v -0.9 5.9 -3.6
v -0.9 6 -3.6
v -0.9 6.1 -3.6
v -0.9 6.2 -3.6
v -0.9 6.3 -3.6
v -0.9 6.4 -3.6
v -2.9 5.9 -3.7
v -2.9 6 -3.7
v -2.9 6.3 -3.7
v -2.9 6.4 -3.7
v -2.3 6.3 -3.7
v -2.3 6.4 -3.7
v -2.2 6.3 -3.7
v -2.2 6.4 -3.7
v -1.7 5.9 -3.7
v -1.7 6 -3.7
v -1.5 5.9 -3.7
v -1.5 6 -3.7
v -1.1 5.9 -3.7
v -1.1 6 -3.7
v -1 6.3 -3.7
v -1 6.4 -3.7
v -1.1 5.9 -0.8
v -1 5.9 -0.8
v -1 5.9 -0.9
v -0.9 5.9 -0.9
v -1 5.9 -1
v -0.9 5.9 -1
v -2.7 5.9 -1.1
v -2 5.9 -1.1
v -1.9 5.9 -1.1
v -1.1 5.9 -1.1
v -1 5.9 -1.1
v -0.8 5.9 -1.1
v -2 5.9 -1.2
v -1.9 5.9 -1.2
v -2.9 5.9 -1.3
v -2.7 5.9 -1.3
v -2.9 5.9 -2.7
v -2.8 5.9 -2.7
v -2.9 5.9 -3
v -2.8 5.9 -3
v -0.9 5.9 -3.5
v -0.8 5.9 -3.5
v -1.7 5.9 -3.6
v -1.5 5.9 -3.6
v -1.1 5.9 -3.6
v -0.9 5.9 -3.6
v -2.9 5.9 -3.7
v -1.7 5.9 -3.7
v -1.5 5.9 -3.7
v -1.1 5.9 -3.7
v -1.2 6 -1
v -1.1 6 -1
v -1.2 6 -1.1
v -1.1 6 -1.1
v -2.8 6 -1.2
v -2.7 6 -1.2
v -2.8 6 -1.3
v -2.7 6 -1.3
v -1.3 6.1 -1.1
v -1.2 6.1 -1.1
v -1 6.1 -1.1
v -1.3 6.1 -1.2
v -1.2 6.1 -1.2
v -1 6.1 -1.2
v -1 6.1 -3.5
v -0.9 6.1 -3.5
v -1 6.1 -3.6
v -0.9 6.1 -3.6
v -2.9 6.3 -1.1
v -1 6.3 -1.1
v -2.8 6.3 -1.2
v -1 6.3 -1.2
v -2.9 6.3 -1.6
v -2.8 6.3 -1.6
v -2.9 6.3 -1.8
v -2.8 6.3 -1.8
v -2.8 6.3 -3.5
v -2.7 6.3 -3.5
v -1.1 6.3 -3.5
v -1 6.3 -3.5
v -2.7 6.3 -3.6
v -2.3 6.3 -3.6
v -2.2 6.3 -3.6
v -1.1 6.3 -3.6
v -1 6.3 -3.6
v -2.9 6.3 -3.7
v -2.3 6.3 -3.7
v -2.2 6.3 -3.7
v -1 6.3 -3.7
v -1.1 6 -0.8
v -1 6 -0.8
v -1 6 -0.9
v -0.9 6 -0.9
v -1.1 6 -1
v -1 6 -1
v -0.9 6 -1
v -2.7 6 -1.1
v -2 6 -1.1
v -1.9 6 -1.1
v -1.2 6 -1.1
v -1 6 -1.1
v -2.7 6 -1.2
v -2 6 -1.2
v -1.9 6 -1.2
v -1.2 6 -1.2
v -1 6 -1.2
v -2.9 6 -1.3
v -2.8 6 -1.3
v -2.9 6 -2.7
v -2.8 6 -2.7
v -2.9 6 -3
v -2.8 6 -3
v -2.8 6 -3.5
v -1.2 6 -3.5
v -1 6 -3.5
v -0.9 6 -3.5
v -1.7 6 -3.6
v -1.5 6 -3.6
v -1.1 6 -3.6
v -0.9 6 -3.6
v -2.9 6 -3.7
v -1.7 6 -3.7
v -1.5 6 -3.7
v -1.1 6 -3.7
v -1.2 6.1 -1
v -1 6.1 -1
v -1.2 6.1 -1.1
v -1 6.1 -1.1
v -1.3 6.2 -1.1
v -1 6.2 -1.1
v -1.3 6.2 -1.2
v -1 6.2 -1.2
v -1 6.3 -1.4
v -0.9 6.3 -1.4
v -0.8 6.3 -1.4
v -1.1 6.3 -1.5
v -1 6.3 -1.5
v -0.9 6.3 -1.5
v -0.8 6.3 -1.5
v -1 6.3 -1.6
v -0.9 6.3 -1.6
v -2.8 6.3 -1.7
v -2.7 6.3 -1.7
v -2.8 6.3 -1.8
v -1.1 6.3 -1.8
v -1 6.3 -1.8
v -2.8 6.3 -1.9
v -2.7 6.3 -1.9
v -0.9 6.3 -3.4
v -0.8 6.3 -3.4
v -0.9 6.3 -3.5
v -0.8 6.3 -3.5
v -2.9 6.4 -1.1
v -0.8 6.4 -1.1
v -2.7 6.4 -1.2
v -1.1 6.4 -1.2
v -2.8 6.4 -1.3
v -2.7 6.4 -1.3
v -1.1 6.4 -1.3
v -1 6.4 -1.3
v -2.7 6.4 -1.4
v -1.2 6.4 -1.4
v -1 6.4 -1.4
v -0.8 6.4 -1.4
v -1.1 6.4 -1.5
v -1 6.4 -1.5
v -0.9 6.4 -1.5
v -0.8 6.4 -1.5
v -2.9 6.4 -1.6
v -2.8 6.4 -1.6
v -1 6.4 -1.6
v -0.9 6.4 -1.6
v -2.8 6.4 -1.7
v -2.7 6.4 -1.7
v -2.9 6.4 -1.8
v -2.8 6.4 -1.8
v -1.1 6.4 -1.8
v -1 6.4 -1.8
v -2.8 6.4 -1.9
v -2.7 6.4 -1.9
v -2.5 6.4 -2.7
v -1.3 6.4 -2.7
v -2.5 6.4 -3
v -1.3 6.4 -3
v -2.7 6.4 -3.4
v -1.2 6.4 -3.4
v -0.9 6.4 -3.4
v -0.8 6.4 -3.4
v -2.8 6.4 -3.5
v -2.7 6.4 -3.5
v -1.1 6.4 -3.5
v -1 6.4 -3.5
v -2.7 6.4 -3.6
v -2.3 6.4 -3.6
v -2.2 6.4 -3.6
v -1.1 6.4 -3.6
v -1 6.4 -3.6
v -0.9 6.4 -3.6
v -2.9 6.4 -3.7
v -2.3 6.4 -3.7
v -2.2 6.4 -3.7
v -1 6.4 -3.7

# faces
f 5/1/1 2/1/1 1/1/1
f 6/1/1 2/1/1 5/1/1
f 7/1/1 4/1/1 3/1/1
f 8/1/1 4/1/1 7/1/1
f 13/2/1 10/2/1 9/2/1
f 14/2/1 10/2/1 13/2/1
f 15/2/1 12/2/1 11/2/1
f 16/2/1 12/2/1 15/2/1
f 21/1/1 18/1/1 17/1/1
f 22/1/1 18/1/1 21/1/1
f 24/7/1 20/7/1 19/7/1
f 24/7/1 23/7/1 22/7/1
f 24/7/1 22/7/1 21/7/1
f 24/7/1 21/7/1 20/7/1
f 25/7/1 23/7/1 24/7/1
f 26/7/1 23/7/1 25/7/1
f 27/7/1 23/7/1 26/7/1
f 28/7/1 23/7/1 27/7/1
f 29/7/1 23/7/1 28/7/1
f 30/7/1 23/7/1 29/7/1
f 31/7/1 23/7/1 30/7/1
f 32/7/1 23/7/1 31/7/1
f 33/7/1 23/7/1 32/7/1
f 34/8/1 25/8/1 24/8/1
f 35/7/1 26/7/1 25/7/1
f 35/8/1 25/8/1 34/8/1
f 36/8/1 27/8/1 26/8/1
f 36/7/1 26/7/1 35/7/1
f 37/7/1 28/7/1 27/7/1
f 37/8/1 27/8/1 36/8/1
f 38/8/1 29/8/1 28/8/1
f 38/7/1 28/7/1 37/7/1
f 39/7/1 30/7/1 29/7/1
f 39/8/1 29/8/1 38/8/1
f 40/8/1 31/8/1 30/8/1
f 40/7/1 30/7/1 39/7/1
f 41/7/1 32/7/1 31/7/1
f 41/8/1 31/8/1 40/8/1
f 42/8/1 33/8/1 32/8/1
f 42/7/1 32/7/1 41/7/1
f 43/7/1 23/7/1 33/7/1
f 43/8/1 33/8/1 42/8/1
f 44/7/1 23/7/1 43/7/1
f 45/6/1 42/6/1 41/6/1
f 45/6/1 35/6/1 34/6/1
f 45/6/1 44/6/1 43/6/1
f 45/6/1 43/6/1 42/6/1
f 45/6/1 41/6/1 40/6/1
f 45/6/1 40/6/1 39/6/1
f 45/6/1 39/6/1 38/6/1
f 45/6/1 38/6/1 37/6/1
f 45/6/1 37/6/1 36/6/1
f 45/6/1 36/6/1 35/6/1
f 46/6/1 44/6/1 45/6/1
f 47/6/1 44/6/1 46/6/1
f 48/6/1 44/6/1 47/6/1
f 49/6/1 44/6/1 48/6/1
f 50/4/1 47/4/1 46/4/1
f 51/4/1 47/4/1 50/4/1
f 54/1/1 53/1/1 52/1/1
f 55/1/1 53/1/1 54/1/1
f 56/1/1 53/1/1 55/1/1
f 59/3/1 58/3/1 57/3/1
f 60/3/1 58/3/1 59/3/1
f 63/2/1 62/2/1 61/2/1
f 64/2/1 62/2/1 63/2/1
f 67/1/1 66/1/1 65/1/1
f 68/1/1 66/1/1 67/1/1
f 71/1/1 70/1/1 69/1/1
f 72/1/1 70/1/1 71/1/1
f 75/9/1 74/9/1 73/9/1
f 76/9/1 74/9/1 75/9/1
f 79/9/1 78/9/1 77/9/1
f 80/9/1 78/9/1 79/9/1
f 83/9/1 82/9/1 81/9/1
f 84/9/1 82/9/1 83/9/1
f 85/9/1 82/9/1 84/9/1
f 88/1/1 87/1/1 86/1/1
f 89/1/1 87/1/1 88/1/1
f 94/2/1 91/2/1 90/2/1
f 95/2/1 91/2/1 94/2/1
f 96/2/1 93/2/1 92/2/1
f 97/2/1 93/2/1 96/2/1
f 100/3/1 95/3/1 94/3/1
f 101/3/1 95/3/1 100/3/1
f 102/2/1 99/2/1 98/2/1
f 103/2/1 99/2/1 102/2/1
f 106/2/1 105/2/1 104/2/1
f 107/2/1 105/2/1 106/2/1
f 108/2/2 109/2/2 110/2/2
f 110/2/2 109/2/2 111/2/2
f 112/2/2 113/2/2 114/2/2
f 114/2/2 113/2/2 115/2/2
f 116/1/2 117/1/2 118/1/2
f 118/1/2 117/1/2 119/1/2
f 120/1/2 121/1/2 122/1/2
f 122/1/2 121/1/2 123/1/2
f 124/1/2 125/1/2 126/1/2
f 126/1/2 125/1/2 127/1/2
f 128/4/2 129/4/2 130/4/2
f 130/4/2 129/4/2 131/4/2
f 132/9/2 133/9/2 136/9/2
f 136/9/2 133/9/2 137/9/2
f 134/9/2 135/9/2 138/9/2
f 138/9/2 135/9/2 139/9/2
f 139/9/2 135/9/2 140/9/2
f 141/4/2 142/4/2 145/4/2
f 145/4/2 142/4/2 146/4/2
f 143/2/2 144/2/2 147/2/2
f 147/2/2 144/2/2 148/2/2
f 149/9/2 150/9/2 153/9/2
f 153/9/2 150/9/2 154/9/2
f 151/1/2 152/1/2 155/1/2
f 155/1/2 152/1/2 156/1/2
f 157/2/2 158/2/2 159/2/2
f 159/2/2 158/2/2 160/2/2
f 159/3/2 160/3/2 162/3/2
f 162/3/2 160/3/2 163/3/2
f 161/2/2 162/2/2 164/2/2
f 162/2/2 163/2/2 164/2/2
f 164/2/2 163/2/2 165/2/2
f 166/1/2 167/1/2 168/1/2
f 168/1/2 167/1/2 169/1/2
f 168/2/2 169/2/2 170/2/2
f 170/2/2 169/2/2 171/2/2
f 171/2/2 169/2/2 172/2/2
f 172/2/2 169/2/2 173/2/2
f 168/2/2 170/2/2 174/2/2
f 174/2/2 170/2/2 175/2/2
f 171/2/2 172/2/2 176/2/2
f 176/2/2 172/2/2 177/2/2
f 180/9/3 179/9/3 178/9/3
f 181/9/3 179/9/3 180/9/3
f 184/9/3 183/9/3 182/9/3
f 185/9/3 183/9/3 184/9/3
f 188/9/3 187/9/3 186/9/3
f 189/9/3 187/9/3 188/9/3
f 190/9/3 187/9/3 189/9/3
f 195/1/3 194/1/3 193/1/3
f 196/1/3 194/1/3 195/1/3
f 201/1/3 198/1/3 197/1/3
f 202/9/3 200/9/3 199/9/3
f 203/1/3 201/1/3 197/1/3
f 204/1/3 201/1/3 203/1/3
f 206/9/3 200/9/3 202/9/3
f 207/9/3 200/9/3 206/9/3
f 208/2/3 192/2/3 191/2/3
f 209/1/3 207/1/3 206/1/3
f 209/1/3 206/1/3 205/1/3
f 210/2/3 208/2/3 207/2/3
f 210/1/3 207/1/3 209/1/3
f 211/2/3 192/2/3 208/2/3
f 211/2/3 208/2/3 210/2/3
f 216/7/3 213/7/3 212/7/3
f 217/8/3 214/8/3 213/8/3
f 217/7/3 213/7/3 216/7/3
f 218/6/3 215/6/3 214/6/3
f 218/8/3 214/8/3 217/8/3
f 219/7/3 217/7/3 216/7/3
f 219/6/3 218/6/3 217/6/3
f 220/6/3 215/6/3 218/6/3
f 220/6/3 218/6/3 219/6/3
f 221/7/3 219/7/3 216/7/3
f 221/7/3 220/7/3 219/7/3
f 222/6/3 215/6/3 220/6/3
f 222/7/3 220/7/3 221/7/3
f 223/7/3 221/7/3 216/7/3
f 223/8/3 222/8/3 221/8/3
f 224/6/3 215/6/3 222/6/3
f 224/8/3 222/8/3 223/8/3
f 226/7/3 223/7/3 216/7/3
f 227/6/3 224/6/3 223/6/3
f 227/7/3 223/7/3 226/7/3
f 228/6/3 215/6/3 224/6/3
f 228/6/3 224/6/3 227/6/3
f 229/1/3 226/1/3 225/1/3
f 230/7/3 227/7/3 226/7/3
f 230/1/3 226/1/3 229/1/3
f 231/8/3 228/8/3 227/8/3
f 231/7/3 227/7/3 230/7/3
f 232/6/3 215/6/3 228/6/3
f 232/8/3 228/8/3 231/8/3
f 233/7/3 231/7/3 230/7/3
f 233/7/3 232/7/3 231/7/3
f 234/6/3 215/6/3 232/6/3
f 234/7/3 232/7/3 233/7/3
f 235/7/3 233/7/3 230/7/3
f 235/8/3 234/8/3 233/8/3
f 236/6/3 215/6/3 234/6/3
f 236/8/3 234/8/3 235/8/3
f 237/7/3 235/7/3 230/7/3
f 238/7/3 235/7/3 237/7/3
f 239/6/3 238/6/3 237/6/3
f 240/6/3 238/6/3 239/6/3
f 241/6/3 215/6/3 236/6/3
f 242/6/3 215/6/3 241/6/3
f 245/1/3 244/1/3 243/1/3
f 246/1/3 245/1/3 243/1/3
f 247/1/3 245/1/3 246/1/3
f 250/2/3 249/2/3 248/2/3
f 251/2/3 249/2/3 250/2/3
f 254/2/3 253/2/3 252/2/3
f 255/2/3 253/2/3 254/2/3
f 258/2/3 257/2/3 256/2/3
f 259/2/3 257/2/3 258/2/3
f 262/4/3 261/4/3 260/4/3
f 263/4/3 261/4/3 262/4/3
f 266/4/3 265/4/3 264/4/3
f 267/4/3 265/4/3 266/4/3
f 270/1/3 269/1/3 268/1/3
f 271/1/3 269/1/3 270/1/3
f 272/9/4 273/9/4 274/9/4
f 274/9/4 273/9/4 275/9/4
f 276/9/4 277/9/4 278/9/4
f 278/9/4 277/9/4 279/9/4
f 280/2/4 281/2/4 282/2/4
f 282/2/4 281/2/4 283/2/4
f 283/2/4 281/2/4 284/2/4
f 285/4/4 286/4/4 287/4/4
f 287/4/4 286/4/4 288/4/4
f 289/2/4 290/2/4 291/2/4
f 291/2/4 290/2/4 292/2/4
f 293/4/4 294/4/4 295/4/4
f 295/4/4 294/4/4 296/4/4
f 297/1/4 298/1/4 299/1/4
f 299/1/4 298/1/4 300/1/4
f 301/2/4 302/2/4 303/2/4
f 303/2/4 302/2/4 304/2/4
f 306/6/4 307/6/4 308/6/4
f 305/7/4 306/7/4 309/7/4
f 306/6/4 308/6/4 310/6/4
f 309/7/4 306/7/4 310/7/4
f 305/7/4 309/7/4 311/7/4
f 309/8/4 310/8/4 311/8/4
f 310/6/4 308/6/4 312/6/4
f 311/8/4 310/8/4 312/8/4
f 305/7/4 311/7/4 313/7/4
f 311/7/4 312/7/4 313/7/4
f 312/6/4 308/6/4 314/6/4
f 313/7/4 312/7/4 314/7/4
f 305/7/4 313/7/4 315/7/4
f 313/8/4 314/8/4 315/8/4
f 314/6/4 308/6/4 316/6/4
f 315/8/4 314/8/4 316/8/4
f 305/7/4 315/7/4 317/7/4
f 315/7/4 316/7/4 317/7/4
f 316/6/4 308/6/4 318/6/4
f 317/7/4 316/7/4 318/7/4
f 305/7/4 317/7/4 319/7/4
f 317/8/4 318/8/4 319/8/4
f 318/6/4 308/6/4 320/6/4
f 319/8/4 318/8/4 320/8/4
f 305/7/4 319/7/4 321/7/4
f 319/7/4 320/7/4 321/7/4
f 320/6/4 308/6/4 322/6/4
f 321/7/4 320/7/4 322/7/4
f 305/7/4 321/7/4 323/7/4
f 321/8/4 322/8/4 324/8/4
f 323/7/4 321/7/4 324/7/4
f 322/6/4 308/6/4 325/6/4
f 324/8/4 322/8/4 325/8/4
f 323/6/4 324/6/4 326/6/4
f 325/6/4 308/6/4 326/6/4
f 324/6/4 325/6/4 326/6/4
f 323/6/4 326/6/4 327/6/4
f 327/6/4 326/6/4 328/6/4
f 328/6/4 326/6/4 329/6/4
f 329/6/4 326/6/4 330/6/4
f 327/3/4 328/3/4 332/3/4
f 332/3/4 328/3/4 333/3/4
f 331/1/4 332/1/4 336/1/4
f 332/1/4 333/1/4 336/1/4
f 333/1/4 334/1/4 336/1/4
f 334/2/4 335/2/4 337/2/4
f 336/1/4 334/1/4 337/1/4
f 337/2/4 335/2/4 338/2/4
f 339/4/4 340/4/4 341/4/4
f 341/4/4 340/4/4 342/4/4
f 343/1/4 344/1/4 345/1/4
f 345/1/4 344/1/4 346/1/4
f 347/1/4 348/1/4 353/1/4
f 353/1/4 348/1/4 354/1/4
f 349/2/4 350/2/4 355/2/4
f 350/3/4 351/3/4 356/3/4
f 355/2/4 350/2/4 356/2/4
f 351/2/4 352/2/4 357/2/4
f 356/3/4 351/3/4 357/3/4
f 357/2/4 352/2/4 358/2/4
f 361/2/4 362/2/4 363/2/4
f 363/2/4 362/2/4 364/2/4
f 359/1/4 360/1/4 367/1/4
f 367/1/4 360/1/4 368/1/4
f 369/1/4 370/1/4 371/1/4
f 371/1/4 370/1/4 372/1/4
f 365/2/4 366/2/4 373/2/4
f 373/2/4 366/2/4 374/2/4
f 377/9/5 376/9/5 375/9/5
f 379/9/5 377/9/5 375/9/5
f 379/9/5 378/9/5 377/9/5
f 380/9/5 378/9/5 379/9/5
f 384/9/5 379/9/5 375/9/5
f 385/9/5 379/9/5 384/9/5
f 387/1/5 382/1/5 381/1/5
f 388/1/5 386/1/5 385/1/5
f 388/1/5 385/1/5 384/1/5
f 388/1/5 384/1/5 383/1/5
f 390/1/5 387/1/5 381/1/5
f 390/1/5 388/1/5 387/1/5
f 391/1/5 390/1/5 389/1/5
f 392/1/5 390/1/5 391/1/5
f 394/1/5 390/1/5 392/1/5
f 395/1/5 386/1/5 388/1/5
f 395/1/5 394/1/5 393/1/5
f 395/1/5 390/1/5 394/1/5
f 395/1/5 388/1/5 390/1/5
f 396/1/5 386/1/5 395/1/5
f 397/1/5 395/1/5 393/1/5
f 398/1/5 395/1/5 397/1/5
f 399/1/5 395/1/5 398/1/5
f 400/1/5 395/1/5 399/1/5
f 401/1/5 397/1/5 393/1/5
f 402/1/5 397/1/5 401/1/5
f 403/1/5 399/1/5 398/1/5
f 404/1/5 399/1/5 403/1/5
f 407/9/5 406/9/5 405/9/5
f 408/9/5 406/9/5 407/9/5
f 411/7/5 410/7/5 409/7/5
f 412/7/5 410/7/5 411/7/5
f 416/9/5 414/9/5 413/9/5
f 416/9/5 415/9/5 414/9/5
f 417/9/5 415/9/5 416/9/5
f 418/9/5 415/9/5 417/9/5
f 421/2/5 420/2/5 419/2/5
f 422/2/5 420/2/5 421/2/5
f 425/2/5 424/2/5 423/2/5
f 426/2/5 424/2/5 425/2/5
f 427/2/5 425/2/5 423/2/5
f 428/2/5 425/2/5 427/2/5
f 431/2/5 430/2/5 429/2/5
f 435/2/5 432/2/5 431/2/5
f 435/4/5 433/4/5 432/4/5
f 436/4/5 433/4/5 435/4/5
f 437/4/5 433/4/5 436/4/5
f 438/2/5 434/2/5 433/2/5
f 438/4/5 433/4/5 437/4/5
f 439/2/5 434/2/5 438/2/5
f 440/2/5 431/2/5 429/2/5
f 440/2/5 435/2/5 431/2/5
f 440/2/5 436/2/5 435/2/5
f 441/2/5 436/2/5 440/2/5
f 442/2/5 439/2/5 438/2/5
f 442/2/5 438/2/5 437/2/5
f 443/2/5 439/2/5 442/2/5
f 444/9/6 445/9/6 446/9/6
f 444/9/6 446/9/6 448/9/6
f 446/9/6 447/9/6 448/9/6
f 448/9/6 447/9/6 449/9/6
f 449/9/6 447/9/6 450/9/6
f 451/1/6 452/1/6 456/1/6
f 456/1/6 452/1/6 457/1/6
f 454/1/6 455/1/6 458/1/6
f 453/1/6 454/1/6 458/1/6
f 458/1/6 455/1/6 459/1/6
f 459/1/6 455/1/6 460/1/6
f 461/1/6 462/1/6 463/1/6
f 463/1/6 462/1/6 464/1/6
f 465/1/6 466/1/6 467/1/6
f 468/1/6 469/1/6 471/1/6
f 469/1/6 470/1/6 471/1/6
f 467/1/6 468/1/6 471/1/6
f 471/1/6 470/1/6 472/1/6
f 472/1/6 470/1/6 473/1/6
f 473/1/6 470/1/6 474/1/6
f 465/1/6 467/1/6 475/1/6
f 467/1/6 471/1/6 475/1/6
f 475/1/6 471/1/6 476/1/6
f 472/1/6 473/1/6 477/1/6
f 477/1/6 473/1/6 478/1/6
f 479/9/6 480/9/6 481/9/6
f 481/9/6 480/9/6 482/9/6
f 483/9/6 484/9/6 485/9/6
f 485/9/6 484/9/6 486/9/6
f 487/3/6 488/3/6 491/3/6
f 488/2/6 489/2/6 492/2/6
f 491/3/6 488/3/6 492/3/6
f 492/2/6 489/2/6 493/2/6
f 490/3/6 491/3/6 494/3/6
f 491/3/6 492/3/6 494/3/6
f 494/3/6 492/3/6 495/3/6
f 496/6/6 497/6/6 498/6/6
f 490/3/6 494/3/6 499/3/6
f 499/3/6 494/3/6 500/3/6
f 498/6/6 497/6/6 501/6/6
f 501/6/6 497/6/6 502/6/6
f 503/2/6 504/2/6 505/2/6
f 505/2/6 504/2/6 506/2/6
f 507/2/6 508/2/6 509/2/6
f 509/2/6 508/2/6 510/2/6
f 507/2/6 509/2/6 511/2/6
f 509/4/6 510/4/6 512/4/6
f 511/2/6 509/2/6 512/2/6
f 510/2/6 508/2/6 513/2/6
f 512/4/6 510/4/6 513/4/6
f 513/2/6 508/2/6 514/2/6
f 511/4/6 512/4/6 515/4/6
f 512/4/6 513/4/6 515/4/6
f 513/4/6 514/4/6 515/4/6
f 515/4/6 514/4/6 516/4/6
f 514/2/6 508/2/6 517/2/6
f 516/4/6 514/4/6 517/4/6
f 517/2/6 508/2/6 518/2/6
f 516/4/6 517/4/6 519/4/6
f 519/4/6 517/4/6 520/4/6
f 507/2/6 511/2/6 523/2/6
f 511/4/6 515/4/6 524/4/6
f 523/2/6 511/2/6 524/2/6
f 521/2/6 522/2/6 526/2/6
f 524/4/6 515/4/6 527/4/6
f 515/3/6 516/3/6 528/3/6
f 527/4/6 515/4/6 528/4/6
f 516/4/6 519/4/6 531/4/6
f 525/2/6 526/2/6 532/2/6
f 529/2/6 530/2/6 533/2/6
f 528/3/6 516/3/6 534/3/6
f 534/3/6 516/3/6 535/3/6
f 535/3/6 516/3/6 536/3/6
f 534/3/6 535/3/6 537/3/6
f 535/5/6 536/5/6 537/5/6
f 536/3/6 516/3/6 538/3/6
f 537/5/6 536/5/6 538/5/6
f 533/4/6 534/4/6 539/4/6
f 534/3/6 537/3/6 539/3/6
f 537/3/6 538/3/6 539/3/6
f 516/4/6 531/4/6 540/4/6
f 539/3/6 538/3/6 540/3/6
f 531/4/6 532/4/6 540/4/6
f 538/3/6 516/3/6 540/3/6
f 526/2/6 522/2/6 541/2/6
f 532/2/6 526/2/6 541/2/6
f 541/2/6 522/2/6 542/2/6
f 533/4/6 539/4/6 543/4/6
f 529/2/6 533/2/6 543/2/6
f 539/4/6 540/4/6 543/4/6
f 543/4/6 540/4/6 544/4/6
f 540/4/6 532/4/6 545/4/6
f 544/4/6 540/4/6 545/4/6
f 532/2/6 541/2/6 546/2/6
f 545/4/6 532/4/6 546/4/6
f 543/2/6 544/2/6 547/2/6
f 544/4/6 545/4/6 547/4/6
f 547/4/6 545/4/6 548/4/6
f 548/4/6 545/4/6 549/4/6
f 545/2/6 546/2/6 550/2/6
f 549/4/6 545/4/6 550/4/6
f 546/2/6 541/2/6 551/2/6
f 550/2/6 546/2/6 551/2/6
f 551/2/6 541/2/6 552/2/6
f 529/2/6 543/2/6 553/2/6
f 543/2/6 547/2/6 553/2/6
f 547/2/6 548/2/6 553/2/6
f 553/2/6 548/2/6 554/2/6
f 549/2/6 550/2/6 555/2/6
f 550/2/6 551/2/6 555/2/6
f 555/2/6 551/2/6 556/2/6
