# MagicaVoxel @ Ephtracy

# group
o 

# material
mtllib models-0.mtl
usemtl palette

# normals
vn -1 0 0
vn 1 0 0
vn 0 0 1
vn 0 0 -1
vn 0 -1 0
vn 0 1 0

# texcoords
vt 0.626953 0.5
vt 0.630859 0.5
vt 0.634766 0.5

# verts
v -2.3 0.8 -2
v -2.3 0.8 -2.2
v -2.3 0.8 -2.5
v -2.3 1.3 -2.2
v -2.3 1.3 -2.3
v -2.3 2.1 -2
v -2.3 2.1 -2.3
v -2.3 2.5 -2
v -2.3 2.5 -2.3
v -2.3 5 -2
v -2.3 5 -2.3
v -2.3 5.4 -2.1
v -2.3 5.4 -2.2
v -2.3 5.5 -2
v -2.3 5.5 -2.1
v -2.3 7.6 -2.2
v -2.3 7.6 -2.3
v -2.3 8.2 -2
v -2.3 8.2 -2.3
v -2.3 8.5 -2.1
v -2.3 8.5 -2.3
v -2.3 8.6 -2
v -2.3 8.6 -2.1
v -2.3 11.2 -2.3
v -2.3 11.2 -2.5
v -2.3 11.4 -2
v -2.3 11.4 -2.3
v -2.2 0.8 -1.9
v -2.2 0.8 -2
v -2.2 0.8 -2.5
v -2.2 0.8 -2.6
v -2.2 2.1 -2
v -2.2 2.2 -1.9
v -2.2 2.2 -2
v -2.2 2.5 -1.9
v -2.2 2.5 -2
v -2.2 5 -2
v -2.2 5.1 -1.9
v -2.2 5.1 -2
v -2.2 5.5 -1.9
v -2.2 5.5 -2
v -2.2 8.2 -1.9
v -2.2 8.2 -2
v -2.2 8.6 -1.9
v -2.2 8.6 -2
v -2.2 11.2 -2.5
v -2.2 11.2 -2.6
v -2.2 11.4 -1.9
v -2.2 11.4 -2
v -2.1 0.8 -1.8
v -2.1 0.8 -1.9
v -2.1 0.8 -2.6
v -2.1 0.8 -2.7
v -2.1 2.1 -1.8
v -2.1 2.1 -1.9
v -2.1 2.1 -2.6
v -2.1 2.1 -2.7
v -2.1 2.2 -1.9
v -2.1 2.5 -1.9
v -2.1 2.6 -1.8
v -2.1 2.6 -1.9
v -2.1 2.6 -2.6
v -2.1 2.6 -2.7
v -2.1 2.7 -2.6
v -2.1 2.7 -2.7
v -2.1 5.1 -1.8
v -2.1 5.1 -1.9
v -2.1 5.5 -1.8
v -2.1 5.5 -1.9
v -2.1 8.2 -1.9
v -2.1 8.3 -1.8
v -2.1 8.3 -1.9
v -2.1 8.6 -1.8
v -2.1 8.6 -1.9
v -2.1 11.2 -2.6
v -2.1 11.2 -2.7
v -2.1 11.4 -1.8
v -2.1 11.4 -1.9
v -1.7 1.3 -1.9
v -1.7 1.3 -2
v -1.7 2.1 -1.9
v -1.7 2.6 -1.9
v -1.7 3 -2.5
v -1.7 3 -2.6
v -1.7 5.1 -1.9
v -1.7 5.1 -2.6
v -1.7 5.5 -1.9
v -1.7 5.5 -2.6
v -1.7 8.3 -1.9
v -1.7 8.3 -2.6
v -1.7 8.6 -1.9
v -1.7 8.6 -2.6
v -1.7 10.8 -2.5
v -1.7 10.8 -2.6
v -1.7 10.9 -2.5
v -1.7 10.9 -2.6
v -1.7 11.2 -1.9
v -1.7 11.2 -2
v -1.6 1.3 -2
v -1.6 1.3 -2.1
v -1.6 1.3 -2.4
v -1.6 1.3 -2.5
v -1.6 10.7 -2.4
v -1.6 10.7 -2.5
v -1.6 10.8 -2.5
v -1.6 10.9 -2.4
v -1.6 10.9 -2.5
v -1.6 11.2 -2
v -1.6 11.2 -2.1
v -1.5 1.3 -2.1
v -1.5 1.3 -2.4
v -1.5 2.1 -2.1
v -1.5 2.1 -2.4
v -1.5 2.5 -2.1
v -1.5 2.5 -2.4
v -1.5 5 -2.1
v -1.5 5 -2.4
v -1.5 5.4 -2.1
v -1.5 5.4 -2.4
v -1.5 8.2 -2.1
v -1.5 8.2 -2.4
v -1.5 8.5 -2.1
v -1.5 8.5 -2.4
v -1.5 10.7 -2.4
v -1.5 10.9 -2.4
v -1.5 11 -2.1
v -1.5 11 -2.4
v -2.2 1.3 -2.1
v -2.2 1.3 -2.2
v -2.2 1.3 -2.3
v -2.2 1.3 -2.4
v -2.2 2.1 -2.1
v -2.2 2.1 -2.3
v -2.2 2.5 -2.1
v -2.2 2.5 -2.3
v -2.2 5 -2.1
v -2.2 5 -2.3
v -2.2 5.4 -2.1
v -2.2 5.4 -2.2
v -2.2 7.6 -2.2
v -2.2 7.6 -2.3
v -2.2 8.2 -2.1
v -2.2 8.2 -2.3
v -2.2 8.5 -2.1
v -2.2 8.5 -2.3
v -2.2 11.2 -2.3
v -2.2 11.2 -2.4
v -2.2 11.4 -2.1
v -2.2 11.4 -2.3
v -2.1 1.3 -2
v -2.1 1.3 -2.1
v -2.1 1.3 -2.4
v -2.1 1.3 -2.5
v -2.1 11.2 -2.4
v -2.1 11.2 -2.5
v -2.1 11.4 -2
v -2.1 11.4 -2.1
v -2 1.3 -1.9
v -2 1.3 -2
v -2 2.1 -1.9
v -2 2.6 -1.9
v -2 3 -2.5
v -2 3 -2.6
v -2 5.1 -1.9
v -2 5.1 -2.6
v -2 5.5 -1.9
v -2 5.5 -2.6
v -2 8.3 -1.9
v -2 8.3 -2.6
v -2 8.6 -1.9
v -2 8.6 -2.6
v -2 11.1 -2.6
v -2 11.1 -2.7
v -2 11.2 -2.5
v -2 11.2 -2.7
v -2 11.4 -1.9
v -2 11.4 -2
v -1.8 10.9 -2.6
v -1.8 10.9 -2.7
v -1.8 11.1 -2.6
v -1.8 11.1 -2.7
v -1.7 11.2 -1.8
v -1.7 11.2 -1.9
v -1.7 11.4 -1.8
v -1.7 11.4 -1.9
v -1.6 0.8 -1.8
v -1.6 0.8 -1.9
v -1.6 0.8 -2.6
v -1.6 0.8 -2.7
v -1.6 2.1 -2.6
v -1.6 2.1 -2.7
v -1.6 2.2 -2.6
v -1.6 2.5 -2.6
v -1.6 2.6 -2.6
v -1.6 2.6 -2.7
v -1.6 5.1 -2.6
v -1.6 5.1 -2.7
v -1.6 5.5 -2.6
v -1.6 5.5 -2.7
v -1.6 8.2 -2.6
v -1.6 8.3 -2.6
v -1.6 8.3 -2.7
v -1.6 8.6 -2.6
v -1.6 8.6 -2.7
v -1.6 10.9 -2.6
v -1.6 10.9 -2.7
v -1.6 11.2 -1.8
v -1.6 11.2 -1.9
v -1.5 0.8 -1.9
v -1.5 0.8 -2
v -1.5 0.8 -2.5
v -1.5 0.8 -2.6
v -1.5 2.1 -2
v -1.5 2.1 -2.5
v -1.5 2.2 -2.5
v -1.5 2.2 -2.6
v -1.5 2.5 -2
v -1.5 2.5 -2.5
v -1.5 2.5 -2.6
v -1.5 5 -2
v -1.5 5 -2.5
v -1.5 5.1 -2.5
v -1.5 5.1 -2.6
v -1.5 5.5 -2
v -1.5 5.5 -2.5
v -1.5 5.5 -2.6
v -1.5 5.8 -2
v -1.5 8.2 -2.5
v -1.5 8.2 -2.6
v -1.5 8.6 -2.5
v -1.5 8.6 -2.6
v -1.5 10.9 -2.5
v -1.5 10.9 -2.6
v -1.5 11.2 -1.9
v -1.5 11.2 -2
v -1.4 0.8 -2
v -1.4 0.8 -2.5
v -1.4 2.1 -2
v -1.4 2.1 -2.5
v -1.4 2.5 -2
v -1.4 2.5 -2.5
v -1.4 5 -2
v -1.4 5 -2.5
v -1.4 5.4 -2.1
v -1.4 5.4 -2.4
v -1.4 5.5 -2
v -1.4 5.5 -2.1
v -1.4 5.5 -2.4
v -1.4 5.5 -2.5
v -1.4 5.8 -2
v -1.4 5.8 -2.1
v -1.4 8.2 -2.1
v -1.4 8.2 -2.5
v -1.4 8.5 -2.1
v -1.4 8.5 -2.4
v -1.4 8.6 -2.4
v -1.4 8.6 -2.5
v -1.4 10.9 -2.4
v -1.4 10.9 -2.5
v -1.4 11 -2.1
v -1.4 11 -2.4
v -1.4 11.2 -2
v -1.4 11.2 -2.1
v -2.1 0.8 -1.8
v -2.1 2.1 -1.8
v -2.1 2.6 -1.8
v -2.1 5.1 -1.8
v -2.1 5.5 -1.8
v -2.1 8.3 -1.8
v -2.1 8.6 -1.8
v -2.1 11.4 -1.8
v -1.7 0.8 -1.8
v -1.7 2.1 -1.8
v -1.7 2.6 -1.8
v -1.7 5.1 -1.8
v -1.7 5.5 -1.8
v -1.7 8.3 -1.8
v -1.7 8.6 -1.8
v -1.7 11.2 -1.8
v -1.7 11.4 -1.8
v -1.6 0.8 -1.8
v -1.6 11.2 -1.8
v -2.2 0.8 -1.9
v -2.2 2.2 -1.9
v -2.2 2.5 -1.9
v -2.2 5.1 -1.9
v -2.2 5.5 -1.9
v -2.2 8.2 -1.9
v -2.2 8.6 -1.9
v -2.2 11.4 -1.9
v -2.1 0.8 -1.9
v -2.1 2.1 -1.9
v -2.1 2.2 -1.9
v -2.1 2.5 -1.9
v -2.1 2.6 -1.9
v -2.1 5.1 -1.9
v -2.1 5.5 -1.9
v -2.1 8.2 -1.9
v -2.1 8.3 -1.9
v -2.1 8.6 -1.9
v -2.1 11.4 -1.9
v -1.6 0.8 -1.9
v -1.6 11.2 -1.9
v -1.5 0.8 -1.9
v -1.5 11.2 -1.9
v -2.3 0.8 -2
v -2.3 2.1 -2
v -2.3 2.5 -2
v -2.3 5 -2
v -2.3 5.5 -2
v -2.3 8.2 -2
v -2.3 8.6 -2
v -2.3 11.4 -2
v -2.2 0.8 -2
v -2.2 2.1 -2
v -2.2 2.2 -2
v -2.2 2.5 -2
v -2.2 5 -2
v -2.2 5.1 -2
v -2.2 5.5 -2
v -2.2 8.2 -2
v -2.2 8.6 -2
v -2.2 11.4 -2
v -1.5 0.8 -2
v -1.5 2.1 -2
v -1.5 2.5 -2
v -1.5 5 -2
v -1.5 5.5 -2
v -1.5 5.8 -2
v -1.5 11.2 -2
v -1.4 0.8 -2
v -1.4 2.1 -2
v -1.4 2.5 -2
v -1.4 5 -2
v -1.4 5.5 -2
v -1.4 5.8 -2
v -1.4 11.2 -2
v -2.2 1.3 -2.4
v -2.2 11.2 -2.4
v -2.1 1.3 -2.4
v -2.1 11.2 -2.4
v -1.6 1.3 -2.4
v -1.6 10.7 -2.4
v -1.6 10.9 -2.4
v -1.5 1.3 -2.4
v -1.5 2.1 -2.4
v -1.5 2.5 -2.4
v -1.5 5 -2.4
v -1.5 5.4 -2.4
v -1.5 8.2 -2.4
v -1.5 8.5 -2.4
v -1.5 10.7 -2.4
v -1.5 10.9 -2.4
v -2.1 1.3 -2.5
v -2.1 11.2 -2.5
v -2 3 -2.5
v -2 11.2 -2.5
v -1.7 3 -2.5
v -1.7 10.8 -2.5
v -1.7 10.9 -2.5
v -1.6 1.3 -2.5
v -1.6 10.7 -2.5
v -1.6 10.8 -2.5
v -1.6 10.9 -2.5
v -2 3 -2.6
v -2 5.1 -2.6
v -2 5.5 -2.6
v -2 8.3 -2.6
v -2 8.6 -2.6
v -2 11.1 -2.6
v -1.8 10.9 -2.6
v -1.8 11.1 -2.6
v -1.7 3 -2.6
v -1.7 5.1 -2.6
v -1.7 5.5 -2.6
v -1.7 8.3 -2.6
v -1.7 8.6 -2.6
v -1.7 10.8 -2.6
v -1.7 10.9 -2.6
v -2 1.3 -1.9
v -2 2.1 -1.9
v -2 2.6 -1.9
v -2 5.1 -1.9
v -2 5.5 -1.9
v -2 8.3 -1.9
v -2 8.6 -1.9
v -2 11.4 -1.9
v -1.7 1.3 -1.9
v -1.7 2.1 -1.9
v -1.7 2.6 -1.9
v -1.7 5.1 -1.9
v -1.7 5.5 -1.9
v -1.7 8.3 -1.9
v -1.7 8.6 -1.9
v -1.7 11.2 -1.9
v -1.7 11.4 -1.9
v -2.1 1.3 -2
v -2.1 11.4 -2
v -2 1.3 -2
v -2 11.4 -2
v -1.7 1.3 -2
v -1.7 11.2 -2
v -1.6 1.3 -2
v -1.6 11.2 -2
v -2.2 1.3 -2.1
v -2.2 2.1 -2.1
v -2.2 2.5 -2.1
v -2.2 5 -2.1
v -2.2 5.4 -2.1
v -2.2 8.2 -2.1
v -2.2 8.5 -2.1
v -2.2 11.4 -2.1
v -2.1 1.3 -2.1
v -2.1 11.4 -2.1
v -1.6 1.3 -2.1
v -1.6 11.2 -2.1
v -1.5 1.3 -2.1
v -1.5 2.1 -2.1
v -1.5 2.5 -2.1
v -1.5 5 -2.1
v -1.5 5.4 -2.1
v -1.5 8.2 -2.1
v -1.5 8.5 -2.1
v -1.5 11 -2.1
v -1.4 11 -2.1
v -1.4 11.2 -2.1
v -2.3 11.2 -2.3
v -2.3 11.4 -2.3
v -2.2 11.2 -2.3
v -2.2 11.4 -2.3
v -1.5 10.9 -2.4
v -1.5 11 -2.4
v -1.4 10.9 -2.4
v -1.4 11 -2.4
v -2.3 0.8 -2.5
v -2.3 11.2 -2.5
v -2.2 0.8 -2.5
v -2.2 11.2 -2.5
v -1.5 0.8 -2.5
v -1.5 2.1 -2.5
v -1.5 2.2 -2.5
v -1.5 2.5 -2.5
v -1.5 5 -2.5
v -1.5 5.1 -2.5
v -1.5 5.5 -2.5
v -1.5 8.2 -2.5
v -1.5 8.6 -2.5
v -1.5 10.9 -2.5
v -1.4 0.8 -2.5
v -1.4 2.1 -2.5
v -1.4 2.5 -2.5
v -1.4 5 -2.5
v -1.4 5.5 -2.5
v -1.4 8.2 -2.5
v -1.4 8.6 -2.5
v -1.4 10.9 -2.5
v -2.2 0.8 -2.6
v -2.2 11.2 -2.6
v -2.1 0.8 -2.6
v -2.1 2.1 -2.6
v -2.1 2.6 -2.6
v -2.1 2.7 -2.6
v -2.1 11.2 -2.6
v -1.6 0.8 -2.6
v -1.6 2.1 -2.6
v -1.6 2.2 -2.6
v -1.6 2.5 -2.6
v -1.6 2.6 -2.6
v -1.6 5.1 -2.6
v -1.6 5.5 -2.6
v -1.6 8.2 -2.6
v -1.6 8.3 -2.6
v -1.6 8.6 -2.6
v -1.6 10.9 -2.6
v -1.5 0.8 -2.6
v -1.5 2.2 -2.6
v -1.5 2.5 -2.6
v -1.5 5.1 -2.6
v -1.5 5.5 -2.6
v -1.5 8.2 -2.6
v -1.5 8.6 -2.6
v -1.5 10.9 -2.6
v -2.1 0.8 -2.7
v -2.1 2.1 -2.7
v -2.1 2.6 -2.7
v -2.1 2.7 -2.7
v -2.1 11.2 -2.7
v -2 2.7 -2.7
v -2 5.1 -2.7
v -2 5.5 -2.7
v -2 8.3 -2.7
v -2 8.6 -2.7
v -2 11.1 -2.7
v -2 11.2 -2.7
v -1.8 10.9 -2.7
v -1.8 11.1 -2.7
v -1.6 0.8 -2.7
v -1.6 2.1 -2.7
v -1.6 2.6 -2.7
v -1.6 5.1 -2.7
v -1.6 5.5 -2.7
v -1.6 8.3 -2.7
v -1.6 8.6 -2.7
v -1.6 10.9 -2.7
v -2.1 0.8 -1.8
v -1.7 0.8 -1.8
v -1.6 0.8 -1.8
v -2.2 0.8 -1.9
v -2.1 0.8 -1.9
v -1.8 0.8 -1.9
v -1.7 0.8 -1.9
v -1.6 0.8 -1.9
v -1.5 0.8 -1.9
v -2.3 0.8 -2
v -2.2 0.8 -2
v -2 0.8 -2
v -1.8 0.8 -2
v -1.5 0.8 -2
v -1.4 0.8 -2
v -2.1 0.8 -2.1
v -2 0.8 -2.1
v -2.3 0.8 -2.2
v -2.1 0.8 -2.2
v -1.6 0.8 -2.3
v -1.5 0.8 -2.3
v -2.3 0.8 -2.5
v -2.2 0.8 -2.5
v -2 0.8 -2.5
v -1.6 0.8 -2.5
v -1.5 0.8 -2.5
v -1.4 0.8 -2.5
v -2.2 0.8 -2.6
v -2.1 0.8 -2.6
v -2 0.8 -2.6
v -1.6 0.8 -2.6
v -1.5 0.8 -2.6
v -2.1 0.8 -2.7
v -1.6 0.8 -2.7
v -2 1.3 -1.9
v -1.7 1.3 -1.9
v -2.1 1.3 -2
v -2 1.3 -2
v -1.7 1.3 -2
v -1.6 1.3 -2
v -2.2 1.3 -2.1
v -2.1 1.3 -2.1
v -2 1.3 -2.1
v -1.6 1.3 -2.1
v -1.5 1.3 -2.1
v -2.2 1.3 -2.2
v -2.1 1.3 -2.2
v -2.2 1.3 -2.3
v -2.2 1.3 -2.4
v -2.1 1.3 -2.4
v -1.6 1.3 -2.4
v -1.5 1.3 -2.4
v -2.1 1.3 -2.5
v -1.6 1.3 -2.5
v -2 3 -2.5
v -1.7 3 -2.5
v -2 3 -2.6
v -1.7 3 -2.6
v -1.6 10.9 -2.4
v -1.5 10.9 -2.4
v -1.4 10.9 -2.4
v -1.7 10.9 -2.5
v -1.6 10.9 -2.5
v -1.5 10.9 -2.5
v -1.4 10.9 -2.5
v -1.8 10.9 -2.6
v -1.7 10.9 -2.6
v -1.6 10.9 -2.6
v -1.5 10.9 -2.6
v -1.8 10.9 -2.7
v -1.6 10.9 -2.7
v -1.5 11 -2.1
v -1.4 11 -2.1
v -1.5 11 -2.4
v -1.4 11 -2.4
v -2 11.1 -2.6
v -1.8 11.1 -2.6
v -2 11.1 -2.7
v -1.8 11.1 -2.7
v -1.7 11.2 -1.8
v -1.6 11.2 -1.8
v -1.7 11.2 -1.9
v -1.6 11.2 -1.9
v -1.5 11.2 -1.9
v -1.7 11.2 -2
v -1.6 11.2 -2
v -1.5 11.2 -2
v -1.4 11.2 -2
v -1.6 11.2 -2.1
v -1.4 11.2 -2.1
v -2.3 11.2 -2.3
v -2.2 11.2 -2.3
v -2.2 11.2 -2.4
v -2.1 11.2 -2.4
v -2.3 11.2 -2.5
v -2.2 11.2 -2.5
v -2.1 11.2 -2.5
v -2 11.2 -2.5
v -2.2 11.2 -2.6
v -2.1 11.2 -2.6
v -2.1 11.2 -2.7
v -2 11.2 -2.7
v -2.1 11.4 -1.8
v -1.7 11.4 -1.8
v -2.2 11.4 -1.9
v -2.1 11.4 -1.9
v -2 11.4 -1.9
v -1.7 11.4 -1.9
v -2.3 11.4 -2
v -2.2 11.4 -2
v -2.1 11.4 -2
v -2 11.4 -2
v -2.2 11.4 -2.1
v -2.1 11.4 -2.1
v -2.3 11.4 -2.3
v -2.2 11.4 -2.3

# faces
f 4/3/1 2/3/1 1/3/1
f 4/2/1 3/2/1 2/2/1
f 5/2/1 3/2/1 4/2/1
f 6/3/1 4/3/1 1/3/1
f 6/3/1 5/3/1 4/3/1
f 7/2/1 3/2/1 5/2/1
f 7/3/1 5/3/1 6/3/1
f 8/2/1 7/2/1 6/2/1
f 9/2/1 3/2/1 7/2/1
f 9/2/1 7/2/1 8/2/1
f 10/3/1 9/3/1 8/3/1
f 11/2/1 3/2/1 9/2/1
f 11/3/1 9/3/1 10/3/1
f 12/2/1 11/2/1 10/2/1
f 13/2/1 11/2/1 12/2/1
f 14/2/1 12/2/1 10/2/1
f 15/3/1 13/3/1 12/3/1
f 15/2/1 12/2/1 14/2/1
f 16/2/1 11/2/1 13/2/1
f 16/3/1 13/3/1 15/3/1
f 16/3/1 15/3/1 14/3/1
f 17/2/1 3/2/1 11/2/1
f 17/2/1 11/2/1 16/2/1
f 18/3/1 16/3/1 14/3/1
f 18/3/1 17/3/1 16/3/1
f 19/2/1 3/2/1 17/2/1
f 19/3/1 17/3/1 18/3/1
f 20/2/1 19/2/1 18/2/1
f 21/2/1 3/2/1 19/2/1
f 21/2/1 19/2/1 20/2/1
f 22/2/1 20/2/1 18/2/1
f 23/3/1 21/3/1 20/3/1
f 23/2/1 20/2/1 22/2/1
f 24/2/1 3/2/1 21/2/1
f 24/3/1 21/3/1 23/3/1
f 24/3/1 23/3/1 22/3/1
f 25/2/1 3/2/1 24/2/1
f 26/3/1 24/3/1 22/3/1
f 27/3/1 24/3/1 26/3/1
f 32/3/1 29/3/1 28/3/1
f 33/3/1 32/3/1 28/3/1
f 34/3/1 32/3/1 33/3/1
f 35/2/1 34/2/1 33/2/1
f 36/2/1 34/2/1 35/2/1
f 37/3/1 36/3/1 35/3/1
f 38/3/1 37/3/1 35/3/1
f 39/3/1 37/3/1 38/3/1
f 40/2/1 39/2/1 38/2/1
f 41/2/1 39/2/1 40/2/1
f 42/3/1 41/3/1 40/3/1
f 43/3/1 41/3/1 42/3/1
f 44/2/1 43/2/1 42/2/1
f 45/2/1 43/2/1 44/2/1
f 46/2/1 31/2/1 30/2/1
f 47/2/1 31/2/1 46/2/1
f 48/3/1 45/3/1 44/3/1
f 49/3/1 45/3/1 48/3/1
f 54/3/1 51/3/1 50/3/1
f 55/3/1 51/3/1 54/3/1
f 56/1/1 53/1/1 52/1/1
f 57/1/1 53/1/1 56/1/1
f 58/2/1 55/2/1 54/2/1
f 59/2/1 58/2/1 54/2/1
f 60/2/1 59/2/1 54/2/1
f 61/2/1 59/2/1 60/2/1
f 62/2/1 57/2/1 56/2/1
f 63/2/1 57/2/1 62/2/1
f 64/1/1 63/1/1 62/1/1
f 65/1/1 63/1/1 64/1/1
f 66/3/1 61/3/1 60/3/1
f 67/3/1 61/3/1 66/3/1
f 68/2/1 67/2/1 66/2/1
f 69/2/1 67/2/1 68/2/1
f 70/3/1 69/3/1 68/3/1
f 71/3/1 70/3/1 68/3/1
f 72/3/1 70/3/1 71/3/1
f 73/2/1 72/2/1 71/2/1
f 74/2/1 72/2/1 73/2/1
f 75/2/1 65/2/1 64/2/1
f 76/2/1 65/2/1 75/2/1
f 77/3/1 74/3/1 73/3/1
f 78/3/1 74/3/1 77/3/1
f 81/2/1 80/2/1 79/2/1
f 82/2/1 80/2/1 81/2/1
f 85/2/1 80/2/1 82/2/1
f 86/2/1 84/2/1 83/2/1
f 87/2/1 80/2/1 85/2/1
f 88/2/1 86/2/1 83/2/1
f 89/2/1 80/2/1 87/2/1
f 90/2/1 88/2/1 83/2/1
f 91/2/1 80/2/1 89/2/1
f 92/2/1 90/2/1 83/2/1
f 93/2/1 92/2/1 83/2/1
f 94/2/1 92/2/1 93/2/1
f 95/1/1 94/1/1 93/1/1
f 96/1/1 94/1/1 95/1/1
f 97/2/1 80/2/1 91/2/1
f 98/2/1 80/2/1 97/2/1
f 103/2/1 102/2/1 101/2/1
f 104/2/1 102/2/1 103/2/1
f 105/1/1 104/1/1 103/1/1
f 106/1/1 105/1/1 103/1/1
f 107/1/1 105/1/1 106/1/1
f 108/2/1 100/2/1 99/2/1
f 109/2/1 100/2/1 108/2/1
f 112/1/1 111/1/1 110/1/1
f 113/1/1 111/1/1 112/1/1
f 114/2/1 113/2/1 112/2/1
f 115/2/1 113/2/1 114/2/1
f 116/1/1 115/1/1 114/1/1
f 117/1/1 115/1/1 116/1/1
f 118/2/1 117/2/1 116/2/1
f 119/2/1 117/2/1 118/2/1
f 120/1/1 119/1/1 118/1/1
f 121/1/1 119/1/1 120/1/1
f 122/2/1 121/2/1 120/2/1
f 123/2/1 121/2/1 122/2/1
f 124/1/1 123/1/1 122/1/1
f 125/1/1 124/1/1 122/1/1
f 126/1/1 125/1/1 122/1/1
f 127/1/1 125/1/1 126/1/1
f 128/3/2 129/3/2 132/3/2
f 129/3/2 130/3/2 132/3/2
f 130/2/2 131/2/2 133/2/2
f 132/3/2 130/3/2 133/3/2
f 132/2/2 133/2/2 134/2/2
f 133/2/2 131/2/2 135/2/2
f 134/2/2 133/2/2 135/2/2
f 134/3/2 135/3/2 136/3/2
f 135/2/2 131/2/2 137/2/2
f 136/3/2 135/3/2 137/3/2
f 136/2/2 137/2/2 138/2/2
f 138/2/2 137/2/2 139/2/2
f 138/3/2 139/3/2 140/3/2
f 139/2/2 137/2/2 140/2/2
f 137/2/2 131/2/2 141/2/2
f 140/2/2 137/2/2 141/2/2
f 138/3/2 140/3/2 142/3/2
f 140/3/2 141/3/2 142/3/2
f 141/2/2 131/2/2 143/2/2
f 142/3/2 141/3/2 143/3/2
f 142/2/2 143/2/2 144/2/2
f 143/2/2 131/2/2 145/2/2
f 144/2/2 143/2/2 145/2/2
f 144/3/2 145/3/2 146/3/2
f 145/2/2 131/2/2 146/2/2
f 146/2/2 131/2/2 147/2/2
f 144/3/2 146/3/2 148/3/2
f 148/3/2 146/3/2 149/3/2
f 152/2/2 153/2/2 154/2/2
f 154/2/2 153/2/2 155/2/2
f 150/3/2 151/3/2 156/3/2
f 156/3/2 151/3/2 157/3/2
f 158/3/2 159/3/2 160/3/2
f 160/3/2 159/3/2 161/3/2
f 161/3/2 159/3/2 164/3/2
f 162/2/2 163/2/2 165/2/2
f 164/3/2 159/3/2 166/3/2
f 162/2/2 165/2/2 167/2/2
f 166/3/2 159/3/2 168/3/2
f 162/2/2 167/2/2 169/2/2
f 168/3/2 159/3/2 170/3/2
f 162/2/2 169/2/2 171/2/2
f 162/2/2 171/2/2 172/2/2
f 162/2/2 172/2/2 174/2/2
f 172/2/2 173/2/2 174/2/2
f 174/2/2 173/2/2 175/2/2
f 170/3/2 159/3/2 176/3/2
f 176/3/2 159/3/2 177/3/2
f 178/1/2 179/1/2 180/1/2
f 180/1/2 179/1/2 181/1/2
f 182/3/2 183/3/2 184/3/2
f 184/3/2 183/3/2 185/3/2
f 188/1/2 189/1/2 190/1/2
f 190/1/2 189/1/2 191/1/2
f 190/2/2 191/2/2 192/2/2
f 192/2/2 191/2/2 193/2/2
f 193/2/2 191/2/2 194/2/2
f 194/2/2 191/2/2 195/2/2
f 194/1/2 195/1/2 196/1/2
f 196/1/2 195/1/2 197/1/2
f 196/2/2 197/2/2 198/2/2
f 198/2/2 197/2/2 199/2/2
f 198/1/2 199/1/2 200/1/2
f 200/1/2 199/1/2 201/1/2
f 201/1/2 199/1/2 202/1/2
f 201/2/2 202/2/2 203/2/2
f 203/2/2 202/2/2 204/2/2
f 203/1/2 204/1/2 205/1/2
f 205/1/2 204/1/2 206/1/2
f 186/2/2 187/2/2 207/2/2
f 207/2/2 187/2/2 208/2/2
f 209/2/2 210/2/2 213/2/2
f 211/1/2 212/1/2 214/1/2
f 214/1/2 212/1/2 215/1/2
f 215/1/2 212/1/2 216/1/2
f 209/2/2 213/2/2 217/2/2
f 215/2/2 216/2/2 218/2/2
f 218/2/2 216/2/2 219/2/2
f 209/2/2 217/2/2 220/2/2
f 218/1/2 219/1/2 221/1/2
f 221/1/2 219/1/2 222/1/2
f 222/1/2 219/1/2 223/1/2
f 209/2/2 220/2/2 224/2/2
f 222/2/2 223/2/2 225/2/2
f 225/2/2 223/2/2 226/2/2
f 209/2/2 224/2/2 227/2/2
f 225/1/2 226/1/2 228/1/2
f 228/1/2 226/1/2 229/1/2
f 228/2/2 229/2/2 230/2/2
f 230/2/2 229/2/2 231/2/2
f 230/1/2 231/1/2 232/1/2
f 232/1/2 231/1/2 233/1/2
f 209/2/2 227/2/2 234/2/2
f 234/2/2 227/2/2 235/2/2
f 236/1/2 237/1/2 238/1/2
f 238/1/2 237/1/2 239/1/2
f 238/2/2 239/2/2 240/2/2
f 240/2/2 239/2/2 241/2/2
f 240/1/2 241/1/2 242/1/2
f 242/1/2 241/1/2 243/1/2
f 242/2/2 243/2/2 244/2/2
f 244/2/2 243/2/2 245/2/2
f 242/2/2 244/2/2 246/2/2
f 244/1/2 245/1/2 247/1/2
f 246/2/2 244/2/2 247/2/2
f 245/2/2 243/2/2 248/2/2
f 247/1/2 245/1/2 248/1/2
f 248/2/2 243/2/2 249/2/2
f 246/1/2 247/1/2 250/1/2
f 247/1/2 248/1/2 250/1/2
f 248/1/2 249/1/2 250/1/2
f 250/1/2 249/1/2 251/1/2
f 250/2/2 251/2/2 252/2/2
f 251/1/2 249/1/2 252/1/2
f 252/1/2 249/1/2 253/1/2
f 250/2/2 252/2/2 254/2/2
f 252/2/2 253/2/2 254/2/2
f 254/2/2 253/2/2 255/2/2
f 254/1/2 255/1/2 256/1/2
f 255/2/2 253/2/2 256/2/2
f 256/2/2 253/2/2 257/2/2
f 254/1/2 256/1/2 258/1/2
f 256/1/2 257/1/2 258/1/2
f 258/1/2 257/1/2 259/1/2
f 250/2/2 254/2/2 260/2/2
f 254/1/2 258/1/2 260/1/2
f 260/1/2 258/1/2 261/1/2
f 250/2/2 260/2/2 262/2/2
f 262/2/2 260/2/2 263/2/2
f 272/3/3 265/3/3 264/3/3
f 273/2/3 266/2/3 265/2/3
f 273/3/3 265/3/3 272/3/3
f 274/3/3 267/3/3 266/3/3
f 274/2/3 266/2/3 273/2/3
f 275/2/3 268/2/3 267/2/3
f 275/3/3 267/3/3 274/3/3
f 276/3/3 269/3/3 268/3/3
f 276/2/3 268/2/3 275/2/3
f 277/2/3 270/2/3 269/2/3
f 277/3/3 269/3/3 276/3/3
f 278/3/3 271/3/3 270/3/3
f 278/2/3 270/2/3 277/2/3
f 279/3/3 271/3/3 278/3/3
f 280/3/3 271/3/3 279/3/3
f 281/2/3 277/2/3 276/2/3
f 281/2/3 273/2/3 272/2/3
f 281/2/3 279/2/3 278/2/3
f 281/2/3 278/2/3 277/2/3
f 281/2/3 276/2/3 275/2/3
f 281/2/3 275/2/3 274/2/3
f 281/2/3 274/2/3 273/2/3
f 282/2/3 279/2/3 281/2/3
f 291/3/3 284/3/3 283/3/3
f 292/3/3 284/3/3 291/3/3
f 293/2/3 285/2/3 284/2/3
f 293/3/3 284/3/3 292/3/3
f 294/3/3 286/3/3 285/3/3
f 294/2/3 285/2/3 293/2/3
f 295/3/3 286/3/3 294/3/3
f 296/2/3 287/2/3 286/2/3
f 296/3/3 286/3/3 295/3/3
f 297/3/3 288/3/3 287/3/3
f 297/2/3 287/2/3 296/2/3
f 298/2/3 289/2/3 288/2/3
f 298/3/3 288/3/3 297/3/3
f 299/2/3 289/2/3 298/2/3
f 300/3/3 290/3/3 289/3/3
f 300/2/3 289/2/3 299/2/3
f 301/3/3 290/3/3 300/3/3
f 304/2/3 303/2/3 302/2/3
f 305/2/3 303/2/3 304/2/3
f 314/3/3 307/3/3 306/3/3
f 315/2/3 308/2/3 307/2/3
f 315/3/3 307/3/3 314/3/3
f 316/2/3 308/2/3 315/2/3
f 317/3/3 309/3/3 308/3/3
f 317/2/3 308/2/3 316/2/3
f 318/2/3 310/2/3 309/2/3
f 318/3/3 309/3/3 317/3/3
f 319/2/3 310/2/3 318/2/3
f 320/3/3 311/3/3 310/3/3
f 320/2/3 310/2/3 319/2/3
f 321/2/3 312/2/3 311/2/3
f 321/3/3 311/3/3 320/3/3
f 322/3/3 313/3/3 312/3/3
f 322/2/3 312/2/3 321/2/3
f 323/3/3 313/3/3 322/3/3
f 331/1/3 325/1/3 324/1/3
f 332/2/3 326/2/3 325/2/3
f 332/1/3 325/1/3 331/1/3
f 333/1/3 327/1/3 326/1/3
f 333/2/3 326/2/3 332/2/3
f 334/2/3 328/2/3 327/2/3
f 334/1/3 327/1/3 333/1/3
f 335/1/3 329/1/3 328/1/3
f 335/2/3 328/2/3 334/2/3
f 336/2/3 330/2/3 329/2/3
f 336/1/3 329/1/3 335/1/3
f 337/2/3 330/2/3 336/2/3
f 340/2/3 339/2/3 338/2/3
f 341/2/3 339/2/3 340/2/3
f 345/2/3 343/2/3 342/2/3
f 346/2/3 343/2/3 345/2/3
f 347/2/3 343/2/3 346/2/3
f 348/2/3 343/2/3 347/2/3
f 349/2/3 343/2/3 348/2/3
f 350/2/3 343/2/3 349/2/3
f 351/2/3 343/2/3 350/2/3
f 352/1/3 344/1/3 343/1/3
f 352/2/3 343/2/3 351/2/3
f 353/1/3 344/1/3 352/1/3
f 356/2/3 355/2/3 354/2/3
f 357/2/3 355/2/3 356/2/3
f 358/2/3 356/2/3 354/2/3
f 361/2/3 358/2/3 354/2/3
f 361/2/3 359/2/3 358/2/3
f 362/2/3 359/2/3 361/2/3
f 363/1/3 360/1/3 359/1/3
f 363/2/3 359/2/3 362/2/3
f 364/1/3 360/1/3 363/1/3
f 371/1/3 370/1/3 369/1/3
f 372/1/3 370/1/3 371/1/3
f 373/1/3 366/1/3 365/1/3
f 374/2/3 367/2/3 366/2/3
f 374/1/3 366/1/3 373/1/3
f 375/1/3 368/1/3 367/1/3
f 375/2/3 367/2/3 374/2/3
f 376/2/3 369/2/3 368/2/3
f 376/1/3 368/1/3 375/1/3
f 377/1/3 371/1/3 369/1/3
f 377/2/3 369/2/3 376/2/3
f 378/1/3 371/1/3 377/1/3
f 379/1/3 371/1/3 378/1/3
f 380/3/4 381/3/4 388/3/4
f 381/2/4 382/2/4 389/2/4
f 388/3/4 381/3/4 389/3/4
f 382/3/4 383/3/4 390/3/4
f 389/2/4 382/2/4 390/2/4
f 383/2/4 384/2/4 391/2/4
f 390/3/4 383/3/4 391/3/4
f 384/3/4 385/3/4 392/3/4
f 391/2/4 384/2/4 392/2/4
f 385/2/4 386/2/4 393/2/4
f 392/3/4 385/3/4 393/3/4
f 386/3/4 387/3/4 394/3/4
f 393/2/4 386/2/4 394/2/4
f 394/3/4 387/3/4 395/3/4
f 395/3/4 387/3/4 396/3/4
f 397/3/4 398/3/4 399/3/4
f 399/3/4 398/3/4 400/3/4
f 401/2/4 402/2/4 403/2/4
f 403/2/4 402/2/4 404/2/4
f 405/3/4 406/3/4 413/3/4
f 411/3/4 412/3/4 413/3/4
f 410/3/4 411/3/4 413/3/4
f 409/3/4 410/3/4 413/3/4
f 408/3/4 409/3/4 413/3/4
f 407/3/4 408/3/4 413/3/4
f 406/3/4 407/3/4 413/3/4
f 413/3/4 412/3/4 414/3/4
f 415/2/4 416/2/4 417/2/4
f 417/2/4 416/2/4 418/2/4
f 418/2/4 416/2/4 419/2/4
f 419/2/4 416/2/4 420/2/4
f 420/2/4 416/2/4 421/2/4
f 421/2/4 416/2/4 422/2/4
f 422/2/4 416/2/4 423/2/4
f 423/2/4 416/2/4 424/2/4
f 424/2/4 416/2/4 425/2/4
f 425/2/4 416/2/4 426/2/4
f 427/3/4 428/3/4 429/3/4
f 429/3/4 428/3/4 430/3/4
f 431/1/4 432/1/4 433/1/4
f 433/1/4 432/1/4 434/1/4
f 435/2/4 436/2/4 437/2/4
f 437/2/4 436/2/4 438/2/4
f 439/1/4 440/1/4 449/1/4
f 440/2/4 441/2/4 450/2/4
f 449/1/4 440/1/4 450/1/4
f 441/2/4 442/2/4 450/2/4
f 442/1/4 443/1/4 451/1/4
f 450/2/4 442/2/4 451/2/4
f 443/2/4 444/2/4 452/2/4
f 451/1/4 443/1/4 452/1/4
f 444/2/4 445/2/4 452/2/4
f 445/1/4 446/1/4 453/1/4
f 452/2/4 445/2/4 453/2/4
f 446/2/4 447/2/4 454/2/4
f 453/1/4 446/1/4 454/1/4
f 447/1/4 448/1/4 455/1/4
f 454/2/4 447/2/4 455/2/4
f 455/1/4 448/1/4 456/1/4
f 457/2/4 458/2/4 459/2/4
f 459/2/4 458/2/4 460/2/4
f 460/2/4 458/2/4 461/2/4
f 461/2/4 458/2/4 462/2/4
f 462/2/4 458/2/4 463/2/4
f 464/1/4 465/1/4 475/1/4
f 465/1/4 466/1/4 475/1/4
f 466/2/4 467/2/4 476/2/4
f 475/1/4 466/1/4 476/1/4
f 467/1/4 468/1/4 477/1/4
f 476/2/4 467/2/4 477/2/4
f 468/1/4 469/1/4 477/1/4
f 469/2/4 470/2/4 478/2/4
f 477/1/4 469/1/4 478/1/4
f 470/1/4 471/1/4 479/1/4
f 478/2/4 470/2/4 479/2/4
f 472/2/4 473/2/4 480/2/4
f 479/1/4 471/1/4 480/1/4
f 471/2/4 472/2/4 480/2/4
f 473/1/4 474/1/4 481/1/4
f 480/2/4 473/2/4 481/2/4
f 481/1/4 474/1/4 482/1/4
f 485/1/4 486/1/4 488/1/4
f 486/2/4 487/2/4 488/2/4
f 488/2/4 487/2/4 489/2/4
f 489/2/4 487/2/4 490/2/4
f 490/2/4 487/2/4 491/2/4
f 491/2/4 487/2/4 492/2/4
f 492/2/4 487/2/4 493/2/4
f 493/2/4 487/2/4 494/2/4
f 492/1/4 493/1/4 495/1/4
f 495/1/4 493/1/4 496/1/4
f 483/1/4 484/1/4 497/1/4
f 484/2/4 485/2/4 498/2/4
f 497/1/4 484/1/4 498/1/4
f 485/1/4 488/1/4 499/1/4
f 498/2/4 485/2/4 499/2/4
f 488/1/4 489/1/4 499/1/4
f 489/2/4 490/2/4 500/2/4
f 499/1/4 489/1/4 500/1/4
f 490/1/4 491/1/4 501/1/4
f 500/2/4 490/2/4 501/2/4
f 491/2/4 492/2/4 502/2/4
f 501/1/4 491/1/4 502/1/4
f 492/1/4 495/1/4 503/1/4
f 502/2/4 492/2/4 503/2/4
f 503/1/4 495/1/4 504/1/4
f 509/3/5 506/3/5 505/3/5
f 510/3/5 506/3/5 509/3/5
f 511/2/5 507/2/5 506/2/5
f 511/3/5 506/3/5 510/3/5
f 512/2/5 507/2/5 511/2/5
f 515/3/5 510/3/5 509/3/5
f 515/3/5 509/3/5 508/3/5
f 516/3/5 510/3/5 515/3/5
f 517/2/5 513/2/5 512/2/5
f 517/3/5 510/3/5 516/3/5
f 517/2/5 512/2/5 511/2/5
f 517/2/5 511/2/5 510/2/5
f 518/2/5 513/2/5 517/2/5
f 520/3/5 516/3/5 515/3/5
f 520/3/5 515/3/5 514/3/5
f 521/2/5 518/2/5 517/2/5
f 521/3/5 516/3/5 520/3/5
f 521/2/5 517/2/5 516/2/5
f 522/3/5 520/3/5 514/3/5
f 523/2/5 521/2/5 520/2/5
f 523/3/5 520/3/5 522/3/5
f 524/2/5 518/2/5 521/2/5
f 524/2/5 521/2/5 523/2/5
f 524/2/5 523/2/5 522/2/5
f 525/1/5 519/1/5 518/1/5
f 525/2/5 518/2/5 524/2/5
f 526/2/5 524/2/5 522/2/5
f 527/2/5 524/2/5 526/2/5
f 528/2/5 524/2/5 527/2/5
f 529/1/5 525/1/5 524/1/5
f 529/2/5 524/2/5 528/2/5
f 530/1/5 519/1/5 525/1/5
f 530/1/5 525/1/5 529/1/5
f 531/1/5 519/1/5 530/1/5
f 532/2/5 528/2/5 527/2/5
f 533/2/5 528/2/5 532/2/5
f 534/1/5 529/1/5 528/1/5
f 534/2/5 528/2/5 533/2/5
f 534/1/5 530/1/5 529/1/5
f 535/1/5 530/1/5 534/1/5
f 536/1/5 530/1/5 535/1/5
f 537/1/5 534/1/5 533/1/5
f 537/1/5 535/1/5 534/1/5
f 538/1/5 535/1/5 537/1/5
f 539/3/6 540/3/6 542/3/6
f 542/3/6 540/3/6 543/3/6
f 541/3/6 542/3/6 546/3/6
f 543/2/6 544/2/6 547/2/6
f 542/2/6 543/2/6 547/2/6
f 546/3/6 542/3/6 547/3/6
f 547/2/6 544/2/6 548/2/6
f 545/3/6 546/3/6 550/3/6
f 548/2/6 549/2/6 551/2/6
f 550/3/6 546/3/6 551/3/6
f 546/2/6 547/2/6 551/2/6
f 547/2/6 548/2/6 551/2/6
f 550/2/6 551/2/6 552/2/6
f 552/2/6 551/2/6 553/2/6
f 551/2/6 549/2/6 554/2/6
f 553/2/6 551/2/6 554/2/6
f 554/2/6 549/2/6 555/2/6
f 555/2/6 549/2/6 556/2/6
f 554/2/6 555/2/6 557/2/6
f 557/2/6 555/2/6 558/2/6
f 559/2/6 560/2/6 561/2/6
f 561/2/6 560/2/6 562/2/6
f 563/1/6 564/1/6 567/1/6
f 564/1/6 565/1/6 567/1/6
f 567/1/6 565/1/6 568/1/6
f 568/1/6 565/1/6 569/1/6
f 566/1/6 567/1/6 571/1/6
f 567/1/6 568/1/6 571/1/6
f 571/1/6 568/1/6 572/1/6
f 572/1/6 568/1/6 573/1/6
f 570/1/6 571/1/6 574/1/6
f 571/1/6 572/1/6 574/1/6
f 574/1/6 572/1/6 575/1/6
f 576/1/6 577/1/6 578/1/6
f 578/1/6 577/1/6 579/1/6
f 580/1/6 581/1/6 582/1/6
f 582/1/6 581/1/6 583/1/6
f 584/2/6 585/2/6 586/2/6
f 586/2/6 585/2/6 587/2/6
f 586/2/6 587/2/6 589/2/6
f 587/2/6 588/2/6 589/2/6
f 589/2/6 588/2/6 590/2/6
f 590/2/6 588/2/6 591/2/6
f 591/2/6 592/2/6 593/2/6
f 590/2/6 591/2/6 593/2/6
f 593/2/6 592/2/6 594/2/6
f 595/2/6 596/2/6 597/2/6
f 595/2/6 597/2/6 599/2/6
f 597/2/6 598/2/6 599/2/6
f 599/2/6 598/2/6 600/2/6
f 600/2/6 598/2/6 601/2/6
f 601/2/6 602/2/6 603/2/6
f 600/2/6 601/2/6 603/2/6
f 603/2/6 602/2/6 604/2/6
f 604/2/6 602/2/6 605/2/6
f 605/2/6 602/2/6 606/2/6
f 607/3/6 608/3/6 610/3/6
f 610/3/6 608/3/6 611/3/6
f 611/3/6 608/3/6 612/3/6
f 609/3/6 610/3/6 614/3/6
f 610/3/6 611/3/6 614/3/6
f 614/3/6 611/3/6 615/3/6
f 615/3/6 611/3/6 616/3/6
f 613/3/6 614/3/6 617/3/6
f 614/3/6 615/3/6 617/3/6
f 617/3/6 615/3/6 618/3/6
f 613/3/6 617/3/6 619/3/6
f 619/3/6 617/3/6 620/3/6
